<svg xmlns="http://www.w3.org/2000/svg" xmlns:xlink="http://www.w3.org/1999/xlink" width="25" height="25" viewBox="0 0 25 25">
  <defs>
    <clipPath id="clip-path">
      <rect id="Rectangle_1001" data-name="Rectangle 1001" width="25" height="25" transform="translate(311 467)" fill="#a11a29" stroke="#707070" stroke-width="1"/>
    </clipPath>
  </defs>
  <g id="Mask_Group_99" data-name="Mask Group 99" transform="translate(-311 -467)" clip-path="url(#clip-path)">
    <g id="information" transform="translate(311 467)">
      <path id="Path_1238" data-name="Path 1238" d="M20.117,6.641a.488.488,0,1,0,.488-.488A.488.488,0,0,0,20.117,6.641Zm0,0" fill="#a11a29"/>
      <path id="Path_1239" data-name="Path 1239" d="M22.07,12.5a9.3,9.3,0,0,1-.186,1.855.488.488,0,0,0,.381.576.481.481,0,0,0,.1.01.489.489,0,0,0,.478-.391,10.276,10.276,0,0,0,.206-2.051,10.143,10.143,0,0,0-.991-4.4.488.488,0,1,0-.882.42,9.175,9.175,0,0,1,.9,3.977Zm0,0" fill="#a11a29"/>
      <path id="Path_1240" data-name="Path 1240" d="M14.941,16.895h-.488V10.547a.488.488,0,0,0-.488-.488H10.059a.488.488,0,0,0-.488.488V12.5a.488.488,0,0,0,.488.488h.488v3.906h-.488a.488.488,0,0,0-.488.488v1.953a.488.488,0,0,0,.488.488h4.883a.488.488,0,0,0,.488-.488V17.383A.488.488,0,0,0,14.941,16.895Zm-.488,1.953H10.547v-.977h.488a.488.488,0,0,0,.488-.488V12.5a.488.488,0,0,0-.488-.488h-.488v-.977h2.93v6.348a.488.488,0,0,0,.488.488h.488Zm0,0" fill="#a11a29"/>
      <path id="Path_1241" data-name="Path 1241" d="M12.5,9.082a1.953,1.953,0,1,0-1.953-1.953A1.955,1.955,0,0,0,12.5,9.082Zm0-2.93a.977.977,0,1,1-.977.977A.978.978,0,0,1,12.5,6.152Zm0,0" fill="#a11a29"/>
      <path id="Path_1242" data-name="Path 1242" d="M12.5,0A12.712,12.712,0,0,0,0,12.5a13.315,13.315,0,0,0,1.774,6.61L.025,24.357a.488.488,0,0,0,.618.617L5.89,23.226A13.312,13.312,0,0,0,12.5,25,12.711,12.711,0,0,0,25,12.5,12.711,12.711,0,0,0,12.5,0Zm0,24.023a12.213,12.213,0,0,1-6.287-1.745.488.488,0,0,0-.416-.051L1.26,23.74,2.773,19.2a.488.488,0,0,0-.051-.416A12.212,12.212,0,0,1,.977,12.5,11.678,11.678,0,0,1,12.5.977,11.678,11.678,0,0,1,24.023,12.5,11.678,11.678,0,0,1,12.5,24.023Zm0,0" fill="#a11a29"/>
    </g>
  </g>
</svg>
