<svg xmlns="http://www.w3.org/2000/svg" xmlns:xlink="http://www.w3.org/1999/xlink" width="22" height="22" viewBox="0 0 22 22">
  <defs>
    <clipPath id="clip-path">
      <rect id="Rectangle_1028" data-name="Rectangle 1028" width="22" height="22" transform="translate(0.244 0.164)" fill="#a11a29" stroke="#707070" stroke-width="1"/>
    </clipPath>
  </defs>
  <g id="Mask_Group_121" data-name="Mask Group 121" transform="translate(-0.244 -0.164)" clip-path="url(#clip-path)">
    <g id="shop" transform="translate(-0.38 0.306)">
      <path id="Path_1332" data-name="Path 1332" d="M20.138,7.932a2.463,2.463,0,0,1-2.2-1.357,2.469,2.469,0,0,1-4.408,0,2.472,2.472,0,0,1-4.412,0,2.472,2.472,0,0,1-4.413,0A2.492,2.492,0,0,1,2.486,7.932a2.6,2.6,0,0,1-1.192-.3V16.8H0v2.435H22.6V16.8H21.381V7.589a2.448,2.448,0,0,1-1.243.343Zm-8.8,1.332H18.87v3.728H11.337Zm-7.533,0H8.826V15.5H3.8Z" transform="translate(0 3.291)" fill="#a11a29"/>
      <path id="Path_1333" data-name="Path 1333" d="M15,5.887l0,0s0,0,0,0Z" transform="translate(7.623 2.94)" fill="#a11a29"/>
      <path id="Path_1334" data-name="Path 1334" d="M.017,5.887h0s0,0,0,0Z" transform="translate(0.009 2.94)" fill="#a11a29"/>
      <path id="Path_1335" data-name="Path 1335" d="M4.746,8.784l1.6-5.022H9.72L9.031,8.784h4.545L12.9,3.762H16.38l1.482,5.022h4.7L20.142,3.762V.034H2.565V3.762L.042,8.784Z" transform="translate(0.022 -0.034)" fill="#a11a29"/>
    </g>
  </g>
</svg>
