<svg xmlns="http://www.w3.org/2000/svg" width="65.15" height="78.09" viewBox="0 0 65.15 78.09">
  <g id="user" transform="translate(0 0)">
    <path id="Path_2" data-name="Path 2" d="M105.84,37.616a18.2,18.2,0,0,0,13.3-5.51,18.2,18.2,0,0,0,5.51-13.3,18.2,18.2,0,0,0-5.51-13.3,18.8,18.8,0,0,0-26.6,0,18.2,18.2,0,0,0-5.51,13.3,18.2,18.2,0,0,0,5.511,13.3A18.2,18.2,0,0,0,105.84,37.616Zm0,0" transform="translate(-73.758)" fill="#e3e3e3"/>
    <path id="Path_3" data-name="Path 3" d="M64.992,269.643a46.457,46.457,0,0,0-.633-4.934,38.876,38.876,0,0,0-1.214-4.961,24.5,24.5,0,0,0-2.039-4.627,17.46,17.46,0,0,0-3.075-4.008,13.56,13.56,0,0,0-4.418-2.776,15.268,15.268,0,0,0-5.64-1.021c-.8,0-1.568.327-3.057,1.3-.916.6-1.988,1.289-3.184,2.053a18.247,18.247,0,0,1-4.12,1.815,16,16,0,0,1-10.079,0,18.2,18.2,0,0,1-4.117-1.815c-1.185-.757-2.257-1.448-3.187-2.054-1.487-.969-2.259-1.3-3.056-1.3a15.248,15.248,0,0,0-5.639,1.022,13.548,13.548,0,0,0-4.418,2.776,17.462,17.462,0,0,0-3.074,4.007A24.551,24.551,0,0,0,2,259.748a38.967,38.967,0,0,0-1.213,4.96,46.292,46.292,0,0,0-.633,4.936C.052,271.139,0,272.69,0,274.256a12.967,12.967,0,0,0,3.851,9.81,13.863,13.863,0,0,0,9.924,3.62h37.6a13.86,13.86,0,0,0,9.923-3.62,12.961,12.961,0,0,0,3.852-9.811c0-1.573-.054-3.125-.158-4.612Zm0,0" transform="translate(0 -209.596)" fill="#e3e3e3"/>
  </g>
</svg>
