<svg xmlns="http://www.w3.org/2000/svg" width="39" height="39" viewBox="0 0 39 39">
  <g id="Group_1009" data-name="Group 1009" transform="translate(-94 -444)">
    <circle id="Ellipse_110" data-name="Ellipse 110" cx="19.5" cy="19.5" r="19.5" transform="translate(94 444)" fill="#48b0ff"/>
    <g id="ok-like-hand-sign" transform="translate(100.031 437.075)">
      <g id="Group_1008" data-name="Group 1008" transform="translate(-0.001 13.925)">
        <path id="Path_1336" data-name="Path 1336" d="M74.872,28.451A3.937,3.937,0,0,1,76.7,29.522c.746-1.476,1.757-5.088-5.858-5.534a9.37,9.37,0,0,1,1.294-3.407c1.035-1.575,1.569-4.279-.523-5.786S69.2,14.038,69,14.814c-.112.442-.811,3.451-.811,3.451s-4.747,4.919-5.556,6.359a2.113,2.113,0,0,1-1.62.849H57.328a8.387,8.387,0,0,0-.4,8.94s.045.237.585.237h4.139a16.251,16.251,0,0,0,3.846,2.811,5.389,5.389,0,0,0,3.262.337,1.647,1.647,0,0,0,1.035.271c.693,0,2.945.429,3.372-1.95a2.419,2.419,0,0,0-1.086-.534c-.342-.063-.2-.584.143-.521a2.972,2.972,0,0,1,1.356.7,2.169,2.169,0,0,0,1.631-2.1.308.308,0,0,1-.055-.036,2.62,2.62,0,0,0-1.365-.785c-.343-.061-.2-.582.144-.521a3.088,3.088,0,0,1,1.576.9c.56-.287,1.656-1.123.829-3.069,0,0,.04-.055.1-.153a3.632,3.632,0,0,0-1.706-1.026C74.387,28.9,74.532,28.383,74.872,28.451Z" transform="translate(-50.24 -13.925)" fill="#fff"/>
        <path id="Path_1337" data-name="Path 1337" d="M6.072,123.542H1.349a10.515,10.515,0,0,0,0,10.256H6.207C2.462,128.67,6.072,123.542,6.072,123.542Z" transform="translate(0.001 -112.534)" fill="#fff"/>
      </g>
    </g>
  </g>
</svg>
