<svg xmlns="http://www.w3.org/2000/svg" xmlns:xlink="http://www.w3.org/1999/xlink" width="18" height="18" viewBox="0 0 18 18">
  <defs>
    <clipPath id="clip-path">
      <rect id="Rectangle_970" data-name="Rectangle 970" width="18" height="18" transform="translate(-0.177 -0.248)" fill="#a11a29" stroke="#707070" stroke-width="1"/>
    </clipPath>
  </defs>
  <g id="Mask_Group_77" data-name="Mask Group 77" transform="translate(0.177 0.248)" clip-path="url(#clip-path)">
    <g id="money" transform="translate(-0.018 1.227)">
      <g id="Group_864" data-name="Group 864">
        <g id="Group_863" data-name="Group 863">
          <path id="Path_1115" data-name="Path 1115" d="M17.815,9.661h0L14.447,1.2a.35.35,0,0,0-.455-.2h0L.327,6.448a.343.343,0,0,0-.14.111.346.346,0,0,0-.187.3v9.105a.35.35,0,0,0,.35.35H15.059a.35.35,0,0,0,.35-.35V11l2.211-.88A.35.35,0,0,0,17.815,9.661Zm-3.106,5.958H.7V7.214H14.709Zm-8.866-9.1,5.864-2.337a2.786,2.786,0,0,0,2.008.866L14.3,6.515Zm9.566,3.729V6.864a.35.35,0,0,0-.35-.35h-.006L14.311,4.65a.29.29,0,0,0-.029-.044.346.346,0,0,0-.366-.27,2.094,2.094,0,0,1-1.836-.791.347.347,0,0,0-.449-.078.394.394,0,0,0-.049.009L4.423,6.326a.346.346,0,0,0-.192.187H2.056L13.926,1.787,17.035,9.6Z" transform="translate(0 -0.982)" fill="#a11a29"/>
          <path id="Path_1116" data-name="Path 1116" d="M1.349,11.762a2.094,2.094,0,0,1,1.414,1.412.35.35,0,0,0,.336.25.321.321,0,0,0,.054-.008.326.326,0,0,0,.048.01h8.405a.3.3,0,0,0,.043-.009.326.326,0,0,0,.394-.24v0a2.094,2.094,0,0,1,1.414-1.414.346.346,0,0,0,.24-.385.353.353,0,0,0,.01-.052v-2.8a.316.316,0,0,0-.011-.052.345.345,0,0,0-.24-.385,2.092,2.092,0,0,1-1.413-1.414.346.346,0,0,0-.388-.24.333.333,0,0,0-.049-.01H3.2a.331.331,0,0,0-.052.011.346.346,0,0,0-.385.24A2.094,2.094,0,0,1,1.349,8.086a.346.346,0,0,0-.24.385.354.354,0,0,0-.01.052v2.8a.323.323,0,0,0,.01.049A.347.347,0,0,0,1.349,11.762Zm.45-3.1A2.779,2.779,0,0,0,3.343,7.123h8.12a2.78,2.78,0,0,0,1.543,1.543v2.517a2.782,2.782,0,0,0-1.543,1.543H3.343A2.782,2.782,0,0,0,1.8,11.183Z" transform="translate(0.302 0.51)" fill="#a11a29"/>
          <path id="Path_1117" data-name="Path 1117" d="M6.5,11.724a2.1,2.1,0,1,0-2.1-2.1A2.1,2.1,0,0,0,6.5,11.724Zm0-3.5a1.4,1.4,0,1,1-1.4,1.4A1.4,1.4,0,0,1,6.5,8.222Z" transform="translate(1.206 0.812)" fill="#a11a29"/>
          <path id="Path_1118" data-name="Path 1118" d="M3.136,9.809a.525.525,0,1,0-.525-.525A.525.525,0,0,0,3.136,9.809Zm0-.7a.175.175,0,1,1-.175.175A.175.175,0,0,1,3.136,9.108Z" transform="translate(0.716 1.151)" fill="#a11a29"/>
          <path id="Path_1119" data-name="Path 1119" d="M9.182,9.809a.525.525,0,1,0-.525-.525A.525.525,0,0,0,9.182,9.809Zm0-.7a.175.175,0,1,1-.175.175A.175.175,0,0,1,9.182,9.108Z" transform="translate(2.375 1.151)" fill="#a11a29"/>
        </g>
      </g>
    </g>
  </g>
</svg>
