<svg id="gallery" xmlns="http://www.w3.org/2000/svg" width="31.796" height="23.374" viewBox="0 0 31.796 23.374">
  <path id="Path_991" data-name="Path 991" d="M34.321,35.374H3.467A.467.467,0,0,1,3,34.906V12.467A.467.467,0,0,1,3.467,12H34.321a.467.467,0,0,1,.467.467V34.906A.467.467,0,0,1,34.321,35.374ZM3.935,34.439H33.853v-21.5H3.935Z" transform="translate(-3 -12)" fill="#b0b0b0"/>
  <path id="Path_992" data-name="Path 992" d="M24.154,43.893a.467.467,0,0,1-.372-.748L35.147,28.186A.467.467,0,0,1,35.51,28a.44.44,0,0,1,.369.166L45.7,39.852a.467.467,0,1,1-.716.6L35.539,29.215,24.526,43.706a.467.467,0,0,1-.372.187Z" transform="translate(-14.017 -20.52)" fill="#b0b0b0"/>
  <path id="Path_993" data-name="Path 993" d="M3.47,42.009a.467.467,0,0,1-.372-.748l8.415-11.074a.467.467,0,0,1,.36-.187.459.459,0,0,1,.369.166L18.5,37.608a.467.467,0,1,1-.716.6L11.9,31.215,3.844,41.824a.467.467,0,0,1-.374.185Z" transform="translate(-3.003 -21.585)" fill="#b0b0b0"/>
  <path id="Path_994" data-name="Path 994" d="M29.8,23.61a2.8,2.8,0,1,1,2.8-2.8A2.8,2.8,0,0,1,29.8,23.61Zm0-4.675a1.87,1.87,0,1,0,1.87,1.87A1.87,1.87,0,0,0,29.8,18.935Z" transform="translate(-15.781 -15.195)" fill="#b0b0b0"/>
</svg>
