<svg xmlns="http://www.w3.org/2000/svg" xmlns:xlink="http://www.w3.org/1999/xlink" width="24" height="24" viewBox="0 0 24 24">
  <defs>
    <clipPath id="clip-path">
      <rect id="Rectangle_965" data-name="Rectangle 965" width="24" height="24" transform="translate(99 770)" fill="#fff" stroke="#707070" stroke-width="1"/>
    </clipPath>
  </defs>
  <g id="Mask_Group_70" data-name="Mask Group 70" transform="translate(-99 -770)" clip-path="url(#clip-path)">
    <g id="price-tag" transform="translate(99 770)">
      <path id="Path_1091" data-name="Path 1091" d="M23.859,8.719,22.6,7.041l-.7,4.9a2.122,2.122,0,0,1-.6,1.193l-8.618,8.618a3.957,3.957,0,0,1-2.817,1.166,4.021,4.021,0,0,1-.933-.11A2.578,2.578,0,0,0,11.109,24H21.422A2.581,2.581,0,0,0,24,21.422V9.141A.7.7,0,0,0,23.859,8.719Z"/>
      <circle id="Ellipse_18" data-name="Ellipse 18" cx="0.703" cy="0.703" r="0.703" transform="translate(13.806 10.275)"/>
      <circle id="Ellipse_19" data-name="Ellipse 19" cx="0.703" cy="0.703" r="0.703" transform="translate(5.851 10.275)"/>
      <path id="Path_1092" data-name="Path 1092" d="M11.692,20.756l8.618-8.618a.7.7,0,0,0,.2-.4L21.5,4.78a.7.7,0,0,0-.2-.6L19.813,2.692,17.824,4.681l.5.5a.7.7,0,1,1-.994.994L15.338,4.183a.7.7,0,0,1,.994-.994l.5.5L18.818,1.7,17.327.206a.7.7,0,0,0-.6-.2L9.77,1a.7.7,0,0,0-.4.2L.754,9.818a2.581,2.581,0,0,0,0,3.646l7.292,7.292a2.581,2.581,0,0,0,3.646,0ZM14.509,8.869A2.109,2.109,0,1,1,12.4,10.978a2.112,2.112,0,0,1,2.109-2.109ZM6.554,13.088a2.109,2.109,0,1,1,2.109-2.109A2.112,2.112,0,0,1,6.554,13.088Zm2.32,3.566a.7.7,0,0,1-.667-.926l3.315-9.944a.7.7,0,0,1,1.334.445L9.542,16.172A.7.7,0,0,1,8.875,16.653Z"/>
      <path id="Path_1093" data-name="Path 1093" d="M21.3,1.2A.7.7,0,1,0,20.31.206L18.818,1.7l.994.994Z"/>
    </g>
  </g>
</svg>
