<svg xmlns="http://www.w3.org/2000/svg" width="18.547" height="11.056" viewBox="0 0 18.547 11.056">
  <g id="eye" transform="translate(0 -98.725)">
    <path id="Path_1225" data-name="Path 1225" d="M9.274,98.725c-3.544,0-6.757,1.939-9.128,5.088a.734.734,0,0,0,0,.876c2.371,3.153,5.585,5.092,9.128,5.092s6.757-1.939,9.128-5.088a.734.734,0,0,0,0-.876C16.031,100.664,12.817,98.725,9.274,98.725Zm.254,9.421a3.9,3.9,0,1,1,3.638-3.638A3.9,3.9,0,0,1,9.528,108.146Zm-.118-1.8a2.1,2.1,0,1,1,1.962-1.962A2.1,2.1,0,0,1,9.41,106.347Z" transform="translate(0)" fill="#a11a29"/>
  </g>
</svg>
