<svg xmlns="http://www.w3.org/2000/svg" xmlns:xlink="http://www.w3.org/1999/xlink" width="40" height="40" viewBox="0 0 40 40">
  <defs>
    <clipPath id="clip-path">
      <rect id="Rectangle_993" data-name="Rectangle 993" width="40" height="40" transform="translate(40 274)" fill="#fff" stroke="#707070" stroke-width="1"/>
    </clipPath>
  </defs>
  <g id="Mask_Group_94" data-name="Mask Group 94" transform="translate(-40 -274)" clip-path="url(#clip-path)">
    <g id="settings" transform="translate(40 274)">
      <path id="Path_1210" data-name="Path 1210" d="M10.388,38.937l1.481-1.075L9.383,35.375,12.29,31.37a14.918,14.918,0,0,1-1.96-4.7l-4.9-.775V20.857l4.9-.775a14.907,14.907,0,0,1,1.954-4.7l-2.9-4.006,2.488-2.487-1.48-1.075L6.826,11.376l2.907,4.006a14.916,14.916,0,0,0-1.96,4.7l-4.9.775v5.037l4.9.775a14.907,14.907,0,0,0,1.954,4.7l-2.9,4.006Z" transform="translate(-2.388 -3.376)" fill="#d4e1f4"/>
      <path id="Path_1211" data-name="Path 1211" d="M20.191,43.083l-1.11.806a14.905,14.905,0,0,0,3.254,1.154l.775,4.9h2.556l-.775-4.9a14.92,14.92,0,0,1-4.7-1.96Z" transform="translate(-5.629 -10.43)" fill="#d4e1f4"/>
      <path id="Path_1212" data-name="Path 1212" d="M24.891,7.774l.775-4.9H23.11l-.775,4.9a14.89,14.89,0,0,0-3.254,1.148l1.11.8a14.9,14.9,0,0,1,4.7-1.951Z" transform="translate(-5.629 -2.388)" fill="#d4e1f4"/>
      <g id="Group_952" data-name="Group 952" transform="translate(0 0)">
        <path id="Path_1213" data-name="Path 1213" d="M24.43,13.086A11.344,11.344,0,1,0,35.774,24.43,11.357,11.357,0,0,0,24.43,13.086Zm0,21.665A10.321,10.321,0,1,1,34.751,24.43,10.321,10.321,0,0,1,24.43,34.751Z" transform="translate(-4.43 -4.43)" fill="#0635c9"/>
        <path id="Path_1214" data-name="Path 1214" d="M19.908,12.948l-.447-.919a13.583,13.583,0,0,0-1.624.935l.57.849a12.554,12.554,0,0,1,1.5-.864Z" transform="translate(-5.38 -4.219)" fill="#0635c9"/>
        <path id="Path_1215" data-name="Path 1215" d="M16.054,14.84l-.639-.8a13.491,13.491,0,0,0-5.084,10.579h1.022A12.474,12.474,0,0,1,16.054,14.84Z" transform="translate(-3.879 -4.621)" fill="#0635c9"/>
        <path id="Path_1216" data-name="Path 1216" d="M41.835,19.243l-4.549-.722a15.347,15.347,0,0,0-1.752-4.226l2.706-3.728a.511.511,0,0,0-.052-.662L34.627,6.343a.511.511,0,0,0-.662-.052L30.237,9a15.349,15.349,0,0,0-4.225-1.751L25.289,2.7a.511.511,0,0,0-.5-.431H19.748a.511.511,0,0,0-.5.431L18.52,7.246A15.349,15.349,0,0,0,14.295,9L10.566,6.291a.511.511,0,0,0-.662.052L6.343,9.9a.511.511,0,0,0-.052.662L9,14.295a15.344,15.344,0,0,0-1.752,4.226L2.7,19.243a.511.511,0,0,0-.431.5v5.037a.511.511,0,0,0,.431.5l4.549.722A15.344,15.344,0,0,0,9,30.237L6.291,33.965a.511.511,0,0,0,.052.662L9.9,38.189a.511.511,0,0,0,.662.052l3.728-2.706a15.349,15.349,0,0,0,4.226,1.751l.722,4.549a.511.511,0,0,0,.5.431h5.037a.511.511,0,0,0,.5-.431l.722-4.549a15.349,15.349,0,0,0,4.226-1.751l3.728,2.706a.511.511,0,0,0,.662-.052l3.562-3.562a.511.511,0,0,0,.052-.662l-2.706-3.728a15.347,15.347,0,0,0,1.752-4.226l4.549-.722a.511.511,0,0,0,.431-.5V19.748a.511.511,0,0,0-.431-.5Zm-.591,5.105-4.456.707a.511.511,0,0,0-.419.393,14.336,14.336,0,0,1-1.881,4.538.511.511,0,0,0,.018.574l2.651,3.652-2.944,2.944L30.56,34.505a.511.511,0,0,0-.574-.018,14.337,14.337,0,0,1-4.538,1.881.511.511,0,0,0-.393.419l-.707,4.456H20.184l-.708-4.456a.511.511,0,0,0-.393-.419,14.337,14.337,0,0,1-4.538-1.881.511.511,0,0,0-.574.018l-3.652,2.651L7.375,34.213l2.651-3.652a.511.511,0,0,0,.018-.574,14.338,14.338,0,0,1-1.881-4.538.511.511,0,0,0-.419-.393l-4.456-.707V20.184l4.456-.708a.511.511,0,0,0,.419-.393,14.338,14.338,0,0,1,1.881-4.538.511.511,0,0,0-.018-.574L7.375,10.319l2.944-2.944,3.652,2.651a.511.511,0,0,0,.574.018,14.337,14.337,0,0,1,4.538-1.881.511.511,0,0,0,.393-.419l.708-4.456h4.164l.707,4.456a.511.511,0,0,0,.393.419,14.337,14.337,0,0,1,4.538,1.881.511.511,0,0,0,.574-.018l3.652-2.651,2.944,2.944-2.651,3.652a.511.511,0,0,0-.018.574,14.336,14.336,0,0,1,1.881,4.538.511.511,0,0,0,.419.393l4.456.708Z" transform="translate(-2.266 -2.266)" fill="#0635c9"/>
      </g>
      <path id="Path_1217" data-name="Path 1217" d="M25.252,17.2a8.055,8.055,0,1,0,8.055,8.055A8.055,8.055,0,0,0,25.252,17.2Zm0,15.088a7.033,7.033,0,1,1,7.033-7.033A7.033,7.033,0,0,1,25.252,32.285Z" transform="translate(-5.252 -5.252)" fill="#1ae5be"/>
      <path id="Path_1218" data-name="Path 1218" d="M26.285,22.363a3.923,3.923,0,1,0,3.923,3.923,3.923,3.923,0,0,0-3.923-3.923Zm0,6.823a2.9,2.9,0,1,1,2.9-2.9A2.9,2.9,0,0,1,26.285,29.185Z" transform="translate(-6.285 -6.286)" fill="#1ae5be"/>
    </g>
  </g>
</svg>
