<svg xmlns="http://www.w3.org/2000/svg" xmlns:xlink="http://www.w3.org/1999/xlink" width="40" height="40" viewBox="0 0 40 40">
  <defs>
    <clipPath id="clip-path">
      <rect id="Rectangle_995" data-name="Rectangle 995" width="40" height="40" transform="translate(168 518)" fill="#fff" stroke="#707070" stroke-width="1"/>
    </clipPath>
  </defs>
  <g id="Mask_Group_97" data-name="Mask Group 97" transform="translate(-168 -518)" clip-path="url(#clip-path)">
    <g id="log-out" transform="translate(168 519.728)">
      <path id="Path_1223" data-name="Path 1223" d="M29.273,17.191H3.468L9.01,10.8A1.081,1.081,0,0,0,7.379,9.384L.393,17.432a1.079,1.079,0,0,0,.051,1.705L7.43,26.123A1.079,1.079,0,1,0,8.958,24.6l-5.25-5.247H29.273a1.08,1.08,0,0,0,0-2.16Zm0,0" fill="#1ae5be"/>
      <path id="Path_1224" data-name="Path 1224" d="M35.71.016h-14.5a4.3,4.3,0,0,0-4.331,4.272V8.148a1.08,1.08,0,0,0,2.16,0V4.3A2.138,2.138,0,0,1,21.2,2.176H35.71a2.1,2.1,0,0,1,2.129,2.078V32.232a2.115,2.115,0,0,1-2.094,2.135H21.214a2.15,2.15,0,0,1-2.17-2.129V28.462a1.08,1.08,0,0,0-2.16,0v3.77a4.312,4.312,0,0,0,4.329,4.3h14.5A4.278,4.278,0,0,0,40,32.262V4.3A4.266,4.266,0,0,0,35.75.016h-.04Zm0,0" fill="#0635c9"/>
    </g>
  </g>
</svg>
