<svg xmlns="http://www.w3.org/2000/svg" xmlns:xlink="http://www.w3.org/1999/xlink" width="40" height="40" viewBox="0 0 40 40">
  <defs>
    <clipPath id="clip-path">
      <rect id="Rectangle_993" data-name="Rectangle 993" width="40" height="40" transform="translate(40 274)" fill="#fff" stroke="#707070" stroke-width="1"/>
    </clipPath>
  </defs>
  <g id="Mask_Group_89" data-name="Mask Group 89" transform="translate(-40 -274)" clip-path="url(#clip-path)">
    <g id="ads" transform="translate(40 274)">
      <path id="Path_1165" data-name="Path 1165" d="M11.708,40.031a1.005,1.005,0,0,1-1.426,0L8.149,37.888l-.116.119a1.018,1.018,0,0,0,0,1.433l2.249,2.26a1.005,1.005,0,0,0,1.426,0c.369-.371,1.189-.978,1.586-1.32l-.872-.876C12.328,39.6,11.8,39.939,11.708,40.031Z" transform="translate(-2.361 -8.391)" fill="#d4e1f4"/>
      <path id="Path_1166" data-name="Path 1166" d="M19.775,33.973a20.75,20.75,0,0,0-5.485,3.021L11.05,33.737q-.333.5-.695.971l3.935,3.955a20.747,20.747,0,0,1,5.485-3.021L27.1,32.966l-1.218-1.224Z" transform="translate(-2.884 -7.161)" fill="#d4e1f4"/>
      <path id="Path_1167" data-name="Path 1167" d="M9.532,38.188a2.044,2.044,0,0,0,2.891,0l.041-.04L17.015,42.7a.488.488,0,0,0,.69,0,3.6,3.6,0,0,0,0-5.091L15.677,35.58a19.185,19.185,0,0,1,3.744-1.849l8.009-2.912a.488.488,0,0,0,.178-.8L24.07,26.478a3.6,3.6,0,0,0-5.028-5.028L15.5,17.911a.488.488,0,0,0-.8.178L11.788,26.1a19.28,19.28,0,0,1-4.457,7,2.044,2.044,0,0,0,0,2.891Zm7.483.11a2.626,2.626,0,0,1,.313,3.335l-4.154-4.154a19.22,19.22,0,0,1,1.68-1.342Zm6-15.79a2.625,2.625,0,0,1,.356,3.268l-3.624-3.624a2.629,2.629,0,0,1,3.268.356ZM12.7,26.432l2.65-7.289,11.021,11.02-7.289,2.65a20.257,20.257,0,0,0-5.4,2.974L9.731,31.835A20.258,20.258,0,0,0,12.7,26.432ZM8.021,33.786q.57-.57,1.094-1.187L12.92,36.4q-.616.523-1.187,1.094a1.068,1.068,0,0,1-1.511,0l-2.2-2.2A1.068,1.068,0,0,1,8.021,33.786Z" transform="translate(-2.16 -4.367)" fill="#0635c9"/>
      <path id="Path_1168" data-name="Path 1168" d="M30.425,26.291a.488.488,0,0,0,.635-.27,5.3,5.3,0,0,0-6.9-6.9.488.488,0,0,0,.365.9,4.325,4.325,0,0,1,5.627,5.628A.488.488,0,0,0,30.425,26.291Z" transform="translate(-5.584 -4.561)" fill="#0635c9"/>
      <path id="Path_1169" data-name="Path 1169" d="M32.572,26.559a.488.488,0,0,0,.635-.27A7.821,7.821,0,0,0,23.029,16.111a.488.488,0,1,0,.365.9A6.846,6.846,0,0,1,32.3,25.924.488.488,0,0,0,32.572,26.559Z" transform="translate(-5.358 -3.922)" fill="#0635c9"/>
      <path id="Path_1170" data-name="Path 1170" d="M39.995,1.016a7.348,7.348,0,1,0,7.348,7.348A7.348,7.348,0,0,0,39.995,1.016Zm0,13.72a6.372,6.372,0,1,1,6.372-6.372,6.372,6.372,0,0,1-6.372,6.372Z" transform="translate(-7.342 -1.016)" fill="#1ae5be"/>
      <path id="Path_1171" data-name="Path 1171" d="M43.355,8.222A1.824,1.824,0,1,0,41.531,6.39L39.269,7.7a1.824,1.824,0,1,0-.047,2.8l2.319,1.453a1.826,1.826,0,1,0,.193-1.03L39.791,9.7a1.822,1.822,0,0,0,.02-1.188L41.8,7.358a1.824,1.824,0,0,0,1.55.864Zm0-2.673a.849.849,0,1,1-.848.849.849.849,0,0,1,.848-.849ZM38.076,9.924a.849.849,0,1,1,.849-.849A.849.849,0,0,1,38.076,9.924Zm5.278.98a.849.849,0,1,1-.848.848.849.849,0,0,1,.848-.848Z" transform="translate(-8.063 -1.728)" fill="#1ae5be"/>
      <path id="Path_1172" data-name="Path 1172" d="M39.995,32.647a7.348,7.348,0,1,0,7.348,7.348,7.348,7.348,0,0,0-7.348-7.348Zm0,13.72a6.372,6.372,0,1,1,6.372-6.372,6.372,6.372,0,0,1-6.372,6.372Z" transform="translate(-7.342 -7.342)" fill="#1ae5be"/>
      <path id="Path_1173" data-name="Path 1173" d="M44.418,40.677l-4-2.472a.488.488,0,0,0-.744.415v4.943a.488.488,0,0,0,.744.415l4-2.472a.488.488,0,0,0,0-.83Zm-3.765,2.011V39.5l2.581,1.6Z" transform="translate(-8.748 -8.44)" fill="#1ae5be"/>
      <path id="Path_1174" data-name="Path 1174" d="M8.364,15.711A7.348,7.348,0,1,0,1.016,8.364a7.348,7.348,0,0,0,7.348,7.348Zm0-13.72A6.372,6.372,0,1,1,1.992,8.364,6.372,6.372,0,0,1,8.364,1.992Z" transform="translate(-1.016 -1.016)" fill="#1ae5be"/>
      <path id="Path_1175" data-name="Path 1175" d="M6.128,12.389H9.619a1.3,1.3,0,0,0,1.3-1.3V11.01l1.783.978a.488.488,0,0,0,.722-.428V7.382a.488.488,0,0,0-.723-.428l-1.782.978V7.855a1.3,1.3,0,0,0-1.3-1.3H6.128a1.3,1.3,0,0,0-1.3,1.3v3.233A1.3,1.3,0,0,0,6.128,12.389Zm6.321-4.182v2.53L10.92,9.9V9.046ZM5.8,7.855a.325.325,0,0,1,.325-.325H9.619a.325.325,0,0,1,.325.325v3.233a.325.325,0,0,1-.325.325H6.128a.325.325,0,0,1-.325-.325Z" transform="translate(-1.778 -2.124)" fill="#1ae5be"/>
    </g>
  </g>
</svg>
