<svg xmlns="http://www.w3.org/2000/svg" xmlns:xlink="http://www.w3.org/1999/xlink" width="20" height="20" viewBox="0 0 20 20">
  <defs>
    <clipPath id="clip-path">
      <rect id="Rectangle_8" data-name="Rectangle 8" width="20" height="20" transform="translate(300 375)" fill="#a11a29" stroke="#707070" stroke-width="1"/>
    </clipPath>
  </defs>
  <g id="Mask_Group_3" data-name="Mask Group 3" transform="translate(-300 -375)" clip-path="url(#clip-path)">
    <g id="XMLID_486_" transform="translate(300 375)">
      <path id="XMLID_487_" d="M10,20A6.966,6.966,0,0,0,15.152,8.341V5.152a5.151,5.151,0,1,0-10.3,0V8.341A6.966,6.966,0,0,0,10,20Zm.909-6.668v1.213a.909.909,0,1,1-1.818,0V13.332a1.515,1.515,0,1,1,1.818,0ZM6.667,5.152a3.333,3.333,0,1,1,6.667,0V6.911a6.959,6.959,0,0,0-6.667,0Z" fill="#a11a29"/>
    </g>
  </g>
</svg>
