<svg xmlns="http://www.w3.org/2000/svg" xmlns:xlink="http://www.w3.org/1999/xlink" width="22" height="22" viewBox="0 0 22 22">
  <defs>
    <clipPath id="clip-path">
      <rect id="Rectangle_1020" data-name="Rectangle 1020" width="22" height="22" transform="translate(0 -0.12)" fill="#767676" stroke="#707070" stroke-width="1"/>
    </clipPath>
  </defs>
  <g id="Mask_Group_117" data-name="Mask Group 117" transform="translate(0 0.12)" clip-path="url(#clip-path)">
    <g id="copy" transform="translate(0.917)">
      <path id="Path_1320" data-name="Path 1320" d="M21.583,2.521A2.521,2.521,0,0,0,19.063,0H8.521A2.521,2.521,0,0,0,6,2.521V14.9a2.521,2.521,0,0,0,2.521,2.521H19.063A2.521,2.521,0,0,0,21.583,14.9ZM17.229,13.292H10.354a.687.687,0,1,1,0-1.375h6.875a.688.688,0,1,1,0,1.375Zm0-2.75H10.354a.688.688,0,1,1,0-1.375h6.875a.688.688,0,1,1,0,1.375Zm0-2.75H10.354a.687.687,0,1,1,0-1.375h6.875a.688.688,0,1,1,0,1.375Z" transform="translate(-1.417)" fill="#767676"/>
      <path id="Path_1321" data-name="Path 1321" d="M8.1,19a3.9,3.9,0,0,1-3.9-3.9V2.729c0-.079.018-.152.023-.229h-.71A2.523,2.523,0,0,0,1,5.021V19.688a2.523,2.523,0,0,0,2.521,2.521h11a2.523,2.523,0,0,0,2.521-2.521V19Z" transform="translate(-1 -0.208)" fill="#767676"/>
    </g>
  </g>
</svg>
