<svg xmlns="http://www.w3.org/2000/svg" xmlns:xlink="http://www.w3.org/1999/xlink" width="20" height="20" viewBox="0 0 20 20">
  <defs>
    <clipPath id="clip-path">
      <rect id="Rectangle_4" data-name="Rectangle 4" width="20" height="20" transform="translate(236 224)" fill="#a11a29" stroke="#707070" stroke-width="1"/>
    </clipPath>
  </defs>
  <g id="Mask_Group_1" data-name="Mask Group 1" transform="translate(-236 -224)" clip-path="url(#clip-path)">
    <g id="globe" transform="translate(236 224)">
      <g id="Group_1" data-name="Group 1">
        <path id="Path_1" data-name="Path 1" d="M9.988,0A10.015,10.015,0,0,0,8.915.059a9.439,9.439,0,0,0-.968.155L7.763.254A10,10,0,0,0,2.83,3.016q-.188.192-.367.4a10.012,10.012,0,0,0,14.686,13.6q.188-.192.367-.4A10.011,10.011,0,0,0,9.988,0ZM3.274,3.517c.053-.055.107-.107.161-.16s.124-.122.187-.182.113-.1.17-.153.128-.114.195-.169.118-.1.177-.143.133-.107.2-.158.122-.09.185-.133.138-.1.209-.146.127-.084.191-.125.143-.091.216-.133l.2-.115q.111-.063.223-.123l.2-.1c.076-.038.153-.075.23-.112s.136-.063.2-.093l.237-.1c.069-.028.138-.056.208-.083s.163-.059.244-.088.139-.049.21-.072.167-.051.251-.076.14-.041.211-.06l.081-.02A8.28,8.28,0,0,0,5.531,4.43a11.209,11.209,0,0,1-2.287-.88Zm-.48.537A11.6,11.6,0,0,0,5.327,5.062a17.317,17.317,0,0,0-.674,4.617h-4A9.324,9.324,0,0,1,2.795,4.054Zm0,11.917A9.325,9.325,0,0,1,.652,10.346h4a17.315,17.315,0,0,0,.674,4.617A11.6,11.6,0,0,0,2.795,15.971ZM7.581,19.04c-.067-.017-.137-.039-.207-.059-.084-.025-.169-.049-.253-.076s-.14-.047-.209-.071-.164-.057-.245-.088-.138-.054-.207-.082l-.239-.1q-.1-.045-.2-.093l-.234-.113c-.067-.033-.133-.067-.2-.1s-.15-.082-.225-.124-.13-.075-.195-.114-.146-.089-.218-.136-.127-.081-.189-.123-.141-.1-.211-.148-.122-.087-.182-.133-.137-.106-.2-.16-.118-.094-.176-.142-.131-.113-.2-.171-.114-.1-.169-.152-.125-.121-.188-.182-.108-.105-.161-.16l-.029-.031a11.2,11.2,0,0,1,2.287-.88A8.282,8.282,0,0,0,7.662,19.06Zm2.074.29c-1.428-.2-2.68-1.693-3.467-3.894a16.959,16.959,0,0,1,3.467-.408v4.3Zm0-4.97a17.574,17.574,0,0,0-3.677.439,16.7,16.7,0,0,1-.657-4.453H9.655Zm0-4.682H5.321a16.691,16.691,0,0,1,.657-4.453,17.58,17.58,0,0,0,3.677.439ZM9.655,5a16.941,16.941,0,0,1-3.467-.408C6.975,2.388,8.227.9,9.655.695V5Zm7.528-.943a9.325,9.325,0,0,1,2.142,5.625h-4a17.315,17.315,0,0,0-.674-4.617A11.607,11.607,0,0,0,17.182,4.054ZM12.394.985c.07.017.14.039.209.06.084.025.169.049.253.076s.14.047.209.071.164.057.245.088.138.054.207.082l.239.1q.1.045.2.093l.234.113c.067.033.133.067.2.1s.15.082.225.124.13.075.195.114.146.089.218.136.127.081.189.123.141.1.211.148.122.088.183.133.136.105.2.16.118.093.176.142.131.113.2.171.114.1.169.152.125.121.188.182.108.105.161.16l.029.031a11.2,11.2,0,0,1-2.287.88A8.282,8.282,0,0,0,12.312.965ZM10.322.695C11.75.9,13,2.388,13.79,4.589A16.959,16.959,0,0,1,10.322,5V.695Zm0,4.97A17.574,17.574,0,0,0,14,5.226a16.7,16.7,0,0,1,.657,4.453H10.322Zm0,4.682h4.334A16.691,16.691,0,0,1,14,14.8h0a17.58,17.58,0,0,0-3.677-.439Zm0,8.984v-4.3a16.941,16.941,0,0,1,3.467.408C13,17.637,11.75,19.127,10.322,19.33Zm6.38-2.822c-.053.054-.107.107-.161.16s-.124.123-.188.182-.112.1-.169.152-.129.115-.2.17-.118.1-.177.143-.133.107-.2.158-.122.09-.185.133-.138.1-.209.146-.127.084-.191.125-.143.091-.216.133l-.2.115q-.111.063-.223.123l-.2.1c-.076.038-.153.075-.23.112s-.136.063-.2.093l-.237.1c-.069.028-.138.056-.207.082s-.163.06-.245.088-.139.049-.209.071-.167.052-.252.076c-.07.021-.14.041-.21.06l-.081.02a8.28,8.28,0,0,0,2.133-3.463,11.209,11.209,0,0,1,2.287.88Zm.48-.537a11.6,11.6,0,0,0-2.533-1.008,17.317,17.317,0,0,0,.674-4.617h4A9.324,9.324,0,0,1,17.182,15.971Z" fill="#a11a29"/>
      </g>
    </g>
  </g>
</svg>
