<svg xmlns="http://www.w3.org/2000/svg" xmlns:xlink="http://www.w3.org/1999/xlink" width="24" height="23" viewBox="0 0 24 23">
  <defs>
    <clipPath id="clip-path">
      <rect id="Rectangle_14" data-name="Rectangle 14" width="24" height="23" transform="translate(297 334)" fill="#a11a29" stroke="#707070" stroke-width="1"/>
    </clipPath>
  </defs>
  <g id="Mask_Group_4" data-name="Mask Group 4" transform="translate(-297 -334)" clip-path="url(#clip-path)">
    <g id="user" transform="translate(299.406 334)">
      <path id="Path_30" data-name="Path 30" d="M9.449,11.079a5.36,5.36,0,0,0,3.917-1.623,5.36,5.36,0,0,0,1.623-3.917,5.361,5.361,0,0,0-1.623-3.917A5.361,5.361,0,0,0,9.449,0,5.36,5.36,0,0,0,5.533,1.623,5.36,5.36,0,0,0,3.91,5.539,5.36,5.36,0,0,0,5.533,9.456a5.361,5.361,0,0,0,3.917,1.623Zm0,0" fill="#a11a29"/>
      <path id="Path_31" data-name="Path 31" d="M19.142,17.686a13.683,13.683,0,0,0-.186-1.453,11.45,11.45,0,0,0-.357-1.461,7.217,7.217,0,0,0-.6-1.363,5.142,5.142,0,0,0-.906-1.18,3.994,3.994,0,0,0-1.3-.818,4.5,4.5,0,0,0-1.661-.3,1.686,1.686,0,0,0-.9.382c-.27.176-.586.38-.938.6a5.374,5.374,0,0,1-1.214.535,4.713,4.713,0,0,1-2.969,0A5.362,5.362,0,0,1,6.9,12.1c-.349-.223-.665-.427-.939-.605a1.684,1.684,0,0,0-.9-.382,4.491,4.491,0,0,0-1.661.3,3.99,3.99,0,0,0-1.3.818,5.143,5.143,0,0,0-.905,1.18,7.231,7.231,0,0,0-.6,1.363,11.477,11.477,0,0,0-.357,1.461,13.635,13.635,0,0,0-.186,1.454c-.031.44-.046.9-.046,1.358a3.819,3.819,0,0,0,1.134,2.889A4.083,4.083,0,0,0,4.057,23H15.132a4.082,4.082,0,0,0,2.923-1.066,3.817,3.817,0,0,0,1.134-2.89c0-.463-.016-.921-.047-1.359Zm0,0" fill="#a11a29"/>
    </g>
  </g>
</svg>
