<svg xmlns="http://www.w3.org/2000/svg" xmlns:xlink="http://www.w3.org/1999/xlink" width="40" height="40" viewBox="0 0 40 40">
  <defs>
    <clipPath id="clip-path">
      <rect id="Rectangle_993" data-name="Rectangle 993" width="40" height="40" transform="translate(40 274)" fill="#fff" stroke="#707070" stroke-width="1"/>
    </clipPath>
  </defs>
  <g id="Mask_Group_93" data-name="Mask Group 93" transform="translate(-40 -274)" clip-path="url(#clip-path)">
    <g id="ads_1_" data-name="ads (1)" transform="translate(40 279.109)">
      <path id="Path_1200" data-name="Path 1200" d="M4.718,16.724a8.074,8.074,0,0,1,6.839-7.968,8.061,8.061,0,1,0,0,15.936,8.074,8.074,0,0,1-6.835-7.968Z" transform="translate(-1.298 -7.686)" fill="#d4e1f4"/>
      <path id="Path_1201" data-name="Path 1201" d="M11.935,29.839a9.053,9.053,0,0,1-1.672-.156v1.046a1.4,1.4,0,0,0,.14.608,9.04,9.04,0,0,0,5.23-.66V29.047a9.059,9.059,0,0,1-3.7.791Z" transform="translate(-2.897 -11.763)" fill="#d4e1f4"/>
      <path id="Path_1202" data-name="Path 1202" d="M23.577,21.141c-.513.24-1.041.463-1.571.666A9.055,9.055,0,0,1,18.2,26.434v1.628a9.055,9.055,0,0,0,3.808-4.626c.53-.2,1.058-.427,1.571-.666l5.582-2.6V18.536Z" transform="translate(-4.484 -9.661)" fill="#d4e1f4"/>
      <path id="Path_1203" data-name="Path 1203" d="M33.12,17.715v1.628l2.149-1V16.712Z" transform="translate(-7.468 -9.296)" fill="#d4e1f4"/>
      <path id="Path_1204" data-name="Path 1204" d="M39.644,28.782a3.3,3.3,0,0,0-2.615-4.063v1.628a3.311,3.311,0,0,1,2.615,2.435Z" transform="translate(-8.25 -10.897)" fill="#d4e1f4"/>
      <path id="Path_1205" data-name="Path 1205" d="M14.6,34.252q-.569-.057-1.14-.086v7.389a3.277,3.277,0,0,0,1.14-.395Z" transform="translate(-3.536 -12.787)" fill="#d4e1f4"/>
      <path id="Path_1206" data-name="Path 1206" d="M31.431,21.815V15.631a.489.489,0,0,0-.7-.443l-9.4,4.389c-.535.25-1.086.482-1.639.69a.489.489,0,1,0,.345.914c.575-.217,1.15-.459,1.707-.719l5.582-2.6V34.249l-5.582-2.605a24.476,24.476,0,0,0-5.379-1.78v-4.32H15.39v4.138a24.323,24.323,0,0,0-3.964-.328,1.408,1.408,0,0,1-1.406-1.406V26.356a.489.489,0,0,0-.977,0v1.592a2.386,2.386,0,0,0,2.383,2.383l.175,0v7.941a.489.489,0,0,0,.489.489,4.283,4.283,0,0,0,4.278-4.278V30.864a23.474,23.474,0,0,1,4.965,1.665l9.4,4.389a.489.489,0,0,0,.7-.443V30.29a4.277,4.277,0,0,0,0-8.475ZM15.39,34.485a3.306,3.306,0,0,1-2.813,3.265V30.361a23.466,23.466,0,0,1,2.813.313Zm15.064,1.223-2.15-1V17.4l2.15-1Zm.977-6.406V22.8a3.3,3.3,0,0,1,0,6.5Z" transform="translate(-2.653 -8.982)" fill="#0635c9"/>
      <path id="Path_1207" data-name="Path 1207" d="M46.223,27.371a6.076,6.076,0,0,0-3.7-5.6.489.489,0,1,0-.383.9,5.107,5.107,0,0,1,0,9.4.489.489,0,1,0,.383.9A6.075,6.075,0,0,0,46.223,27.371Z" transform="translate(-9.213 -10.3)" fill="#0635c9"/>
      <path id="Path_1208" data-name="Path 1208" d="M44.029,18.4a.489.489,0,1,0-.383.9,8.039,8.039,0,0,1,0,14.793.489.489,0,1,0,.383.9,9.016,9.016,0,0,0,0-16.591Z" transform="translate(-9.514 -9.626)" fill="#0635c9"/>
      <path id="Path_1209" data-name="Path 1209" d="M10.093,7.442a9.038,9.038,0,1,0,9.038,9.038A9.038,9.038,0,0,0,10.093,7.442ZM2.032,16.48a8.027,8.027,0,0,1,2.029-5.341L15.434,22.512a8.056,8.056,0,0,1-13.4-6.032Zm14.093,5.341L4.752,10.448A8.056,8.056,0,0,1,16.125,21.821Z" transform="translate(-1.055 -7.442)" fill="#1ae5be"/>
    </g>
  </g>
</svg>
