<svg xmlns="http://www.w3.org/2000/svg" xmlns:xlink="http://www.w3.org/1999/xlink" width="24" height="24" viewBox="0 0 24 24">
  <defs>
    <clipPath id="clip-path">
      <rect id="Rectangle_1019" data-name="Rectangle 1019" width="24" height="24" transform="translate(308.222 229)" fill="#a11a29" stroke="#707070" stroke-width="1"/>
    </clipPath>
  </defs>
  <g id="Mask_Group_114" data-name="Mask Group 114" transform="translate(-308.222 -229)" clip-path="url(#clip-path)">
    <g id="mail" transform="translate(307.99 232.597)">
      <g id="Group_985" data-name="Group 985" transform="translate(16.669 1.217)">
        <g id="Group_984" data-name="Group 984">
          <path id="Path_1309" data-name="Path 1309" d="M27.986,5.96l-7.349,7.3,7.349,7.3a2.105,2.105,0,0,0,.213-.912V6.873A2.105,2.105,0,0,0,27.986,5.96Z" transform="translate(-20.637 -5.96)" fill="#a11a29"/>
        </g>
      </g>
      <g id="Group_987" data-name="Group 987" transform="translate(1.217)">
        <g id="Group_986" data-name="Group 986">
          <path id="Path_1310" data-name="Path 1310" d="M22.391,4.453H2.42a2.1,2.1,0,0,0-.912.213L10.9,14.012a2.131,2.131,0,0,0,3.011,0L23.3,4.667A2.1,2.1,0,0,0,22.391,4.453Z" transform="translate(-1.507 -4.453)" fill="#a11a29"/>
        </g>
      </g>
      <g id="Group_989" data-name="Group 989" transform="translate(0 1.217)">
        <g id="Group_988" data-name="Group 988">
          <path id="Path_1311" data-name="Path 1311" d="M.213,5.96A2.1,2.1,0,0,0,0,6.873V19.651a2.1,2.1,0,0,0,.213.912l7.349-7.3Z" transform="translate(0 -5.96)" fill="#a11a29"/>
        </g>
      </g>
      <g id="Group_991" data-name="Group 991" transform="translate(1.217 9.523)">
        <g id="Group_990" data-name="Group 990">
          <path id="Path_1312" data-name="Path 1312" d="M15.955,16.243l-1.04,1.04a3.553,3.553,0,0,1-5.019,0l-1.04-1.04-7.349,7.3a2.1,2.1,0,0,0,.912.213H22.391a2.1,2.1,0,0,0,.912-.213Z" transform="translate(-1.507 -16.243)" fill="#a11a29"/>
        </g>
      </g>
    </g>
  </g>
</svg>
