<svg xmlns="http://www.w3.org/2000/svg" xmlns:xlink="http://www.w3.org/1999/xlink" width="28" height="28" viewBox="0 0 28 28">
  <defs>
    <clipPath id="clip-path">
      <rect id="Rectangle_880" data-name="Rectangle 880" width="28" height="28" transform="translate(28 762)" fill="#a11a29"/>
    </clipPath>
  </defs>
  <g id="Mask_Group_47" data-name="Mask Group 47" transform="translate(-28 -762)" clip-path="url(#clip-path)">
    <g id="notification" transform="translate(30.904 762)">
      <path id="Path_966" data-name="Path 966" d="M7.235,18.2a4.23,4.23,0,0,0,7.743,0Z" transform="translate(-0.01 7.278)" fill="#a11a29"/>
      <path id="Path_967" data-name="Path 967" d="M10.928,2.675a9.514,9.514,0,0,1,3.249.569V3.119A3.123,3.123,0,0,0,11.057,0H10.8A3.123,3.123,0,0,0,7.68,3.119v.123A9.533,9.533,0,0,1,10.928,2.675Z" transform="translate(0.168 0)" fill="#a11a29"/>
      <path id="Path_968" data-name="Path 968" d="M23.423,22.6H2.918a.836.836,0,0,1-.824-.641.8.8,0,0,1,.439-.907,4.351,4.351,0,0,0,1.324-1.8c1.141-2.411,1.38-5.807,1.38-8.231A7.933,7.933,0,0,1,21.1,10.986c0,.01,0,.021,0,.031,0,2.424.239,5.82,1.38,8.231a4.35,4.35,0,0,0,1.324,1.8.8.8,0,0,1,.439.907A.836.836,0,0,1,23.423,22.6Zm.394-1.542h0Z" transform="translate(-2.074 1.234)" fill="#a11a29"/>
    </g>
  </g>
</svg>
