<svg xmlns="http://www.w3.org/2000/svg" xmlns:xlink="http://www.w3.org/1999/xlink" width="24" height="24" viewBox="0 0 24 24">
  <defs>
    <clipPath id="clip-path">
      <rect id="Rectangle_935" data-name="Rectangle 935" width="24" height="24" transform="translate(330 770)" stroke="#707070" stroke-width="1"/>
    </clipPath>
  </defs>
  <g id="Mask_Group_63" data-name="Mask Group 63" transform="translate(-330 -770)" clip-path="url(#clip-path)">
    <path id="home-run" d="M23.648,10.571l0,0L13.732.656a2.237,2.237,0,0,0-3.164,0L.66,10.564l-.01.01a2.236,2.236,0,0,0,1.489,3.812q.034,0,.069,0h.4v7.3A2.621,2.621,0,0,0,5.221,24.3H9.1a.712.712,0,0,0,.712-.712v-5.72a1.2,1.2,0,0,1,1.195-1.195h2.288a1.2,1.2,0,0,1,1.195,1.195v5.72a.712.712,0,0,0,.712.712H19.08A2.621,2.621,0,0,0,21.7,21.685v-7.3h.366a2.238,2.238,0,0,0,1.583-3.819Zm0,0" transform="translate(330.001 770)"/>
  </g>
</svg>
