<svg xmlns="http://www.w3.org/2000/svg" xmlns:xlink="http://www.w3.org/1999/xlink" width="23" height="23" viewBox="0 0 23 23">
  <defs>
    <clipPath id="clip-path">
      <rect id="Rectangle_975" data-name="Rectangle 975" width="23" height="23" fill="#767676" stroke="#707070" stroke-width="1"/>
    </clipPath>
  </defs>
  <g id="Mask_Group_78" data-name="Mask Group 78" clip-path="url(#clip-path)">
    <g id="share" transform="translate(0.959 0)">
      <path id="Path_1120" data-name="Path 1120" d="M24.673,4.055A3.118,3.118,0,1,1,21.555.938a3.118,3.118,0,0,1,3.118,3.118Zm0,0" transform="translate(-4.288 -0.218)" fill="#767676"/>
      <path id="Path_1121" data-name="Path 1121" d="M21.337,7.674a3.837,3.837,0,1,1,3.837-3.837A3.841,3.841,0,0,1,21.337,7.674Zm0-6.236a2.4,2.4,0,1,0,2.4,2.4,2.4,2.4,0,0,0-2.4-2.4Zm0,0" transform="translate(-4.07 0)" fill="#767676"/>
      <path id="Path_1122" data-name="Path 1122" d="M24.673,24.055a3.118,3.118,0,1,1-3.118-3.118A3.118,3.118,0,0,1,24.673,24.055Zm0,0" transform="translate(-4.288 -4.869)" fill="#767676"/>
      <path id="Path_1123" data-name="Path 1123" d="M21.337,27.674a3.837,3.837,0,1,1,3.837-3.837A3.841,3.841,0,0,1,21.337,27.674Zm0-6.236a2.4,2.4,0,1,0,2.4,2.4A2.4,2.4,0,0,0,21.337,21.439Zm0,0" transform="translate(-4.07 -4.651)" fill="#767676"/>
      <path id="Path_1124" data-name="Path 1124" d="M7.173,14.055a3.118,3.118,0,1,1-3.118-3.118A3.118,3.118,0,0,1,7.173,14.055Zm0,0" transform="translate(-0.218 -2.544)" fill="#767676"/>
      <path id="Path_1125" data-name="Path 1125" d="M3.837,17.674a3.837,3.837,0,1,1,3.837-3.837,3.841,3.841,0,0,1-3.837,3.837Zm0-6.235a2.4,2.4,0,1,0,2.4,2.4,2.4,2.4,0,0,0-2.4-2.4Zm0,0" transform="translate(0 -2.326)" fill="#767676"/>
      <path id="Path_1126" data-name="Path 1126" d="M7.66,12.281a.959.959,0,0,1-.476-1.793l8.9-5.075a.959.959,0,1,1,.95,1.667l-8.9,5.075a.953.953,0,0,1-.474.126Zm0,0" transform="translate(-1.558 -1.229)" fill="#767676"/>
      <path id="Path_1127" data-name="Path 1127" d="M16.561,22.593a.953.953,0,0,1-.474-.126l-8.9-5.075a.959.959,0,0,1,.95-1.667l8.9,5.075a.959.959,0,0,1-.476,1.793Zm0,0" transform="translate(-1.558 -3.628)" fill="#767676"/>
    </g>
  </g>
</svg>
