<svg xmlns="http://www.w3.org/2000/svg" width="15" height="13.535" viewBox="0 0 15 13.535">
  <g id="calendar" transform="translate(0 -25)">
    <path id="Path_1226" data-name="Path 1226" d="M14.736,33.509V27.256a1.32,1.32,0,0,0-1.318-1.318H11.689v-.5a.439.439,0,1,0-.879,0v.5H7.939v-.5a.439.439,0,0,0-.879,0v.5H4.189v-.5a.439.439,0,0,0-.879,0v.5H1.318A1.32,1.32,0,0,0,0,27.256v8.086A1.32,1.32,0,0,0,1.318,36.66H8.142a3.662,3.662,0,0,0,6.594-3.151Zm-2.959-1.384a2.79,2.79,0,0,1,2.309,2.309H11.777ZM1.318,35.781a.44.44,0,0,1-.439-.439V27.256a.44.44,0,0,1,.439-.439H3.311v.527a.439.439,0,0,0,.879,0v-.527H7.061v.527a.439.439,0,0,0,.879,0v-.527h2.871v.527a.439.439,0,1,0,.879,0v-.527h1.729a.44.44,0,0,1,.439.439v4.962A3.662,3.662,0,0,0,7.79,35.781Zm10.02,1.875a2.783,2.783,0,0,1-.439-5.532v2.748a.439.439,0,0,0,.439.439h2.748A2.788,2.788,0,0,1,11.338,37.656Z" fill="#a11a29"/>
    <path id="Path_1227" data-name="Path 1227" d="M66.143,185h-.7a.439.439,0,1,0,0,.879h.7a.439.439,0,0,0,0-.879Z" transform="translate(-63.096 -155.313)" fill="#a11a29"/>
    <path id="Path_1228" data-name="Path 1228" d="M154.143,185h-.7a.439.439,0,0,0,0,.879h.7a.439.439,0,0,0,0-.879Z" transform="translate(-148.518 -155.313)" fill="#a11a29"/>
    <path id="Path_1229" data-name="Path 1229" d="M154.143,249h-.7a.439.439,0,1,0,0,.879h.7a.439.439,0,1,0,0-.879Z" transform="translate(-148.518 -217.438)" fill="#a11a29"/>
    <path id="Path_1230" data-name="Path 1230" d="M66.143,249h-.7a.439.439,0,1,0,0,.879h.7a.439.439,0,1,0,0-.879Z" transform="translate(-63.096 -217.438)" fill="#a11a29"/>
    <path id="Path_1231" data-name="Path 1231" d="M66.143,313h-.7a.439.439,0,1,0,0,.879h.7a.439.439,0,1,0,0-.879Z" transform="translate(-63.096 -279.562)" fill="#a11a29"/>
    <path id="Path_1232" data-name="Path 1232" d="M154.143,313h-.7a.439.439,0,1,0,0,.879h.7a.439.439,0,1,0,0-.879Z" transform="translate(-148.518 -279.562)" fill="#a11a29"/>
  </g>
</svg>
