<svg xmlns="http://www.w3.org/2000/svg" xmlns:xlink="http://www.w3.org/1999/xlink" width="22" height="22" viewBox="0 0 22 22">
  <defs>
    <clipPath id="clip-path">
      <rect id="Rectangle_764" data-name="Rectangle 764" width="22" height="22" transform="translate(322 124.781)" fill="#a11a29" stroke="#707070" stroke-width="1"/>
    </clipPath>
  </defs>
  <g id="Mask_Group_33" data-name="Mask Group 33" transform="translate(-322 -124.781)" clip-path="url(#clip-path)">
    <g id="pay" transform="translate(322 125.011)">
      <g id="Group_569" data-name="Group 569" transform="translate(0 0)">
        <g id="Group_568" data-name="Group 568">
          <path id="Path_818" data-name="Path 818" d="M21.629,7.826,19.2,1.5a2.321,2.321,0,0,0-3-1.331l-.052.021L3.983,5.23A2.31,2.31,0,0,0,2.7,8.186l.334.893H2.267A2.269,2.269,0,0,0,0,11.345v8.16a2.269,2.269,0,0,0,2.267,2.267H17.68a2.269,2.269,0,0,0,2.267-2.267v-8.16a2.228,2.228,0,0,0-.033-.367l.421-.17A2.33,2.33,0,0,0,21.629,7.826ZM2.267,9.8H17.68a1.539,1.539,0,0,1,1.532,1.451H.734A1.539,1.539,0,0,1,2.267,9.8ZM5.912,7.62,8.336,6.407l.5,1.246L6.41,8.866ZM19.221,19.505a1.543,1.543,0,0,1-1.541,1.541H2.267A1.543,1.543,0,0,1,.725,19.505V14.881h18.5Zm0-5.349H.725V11.98h18.5Zm.842-4.018-.379.153a2.268,2.268,0,0,0-2-1.212H7.606l1.851-.926a.363.363,0,0,0,.175-.459L8.863,5.772a.363.363,0,0,0-.471-.2l-.028.012L5.289,7.121a.363.363,0,0,0-.174.459l.6,1.5H3.808L3.379,7.934A1.588,1.588,0,0,1,4.261,5.9L16.421.862a1.594,1.594,0,0,1,2.082.862l.015.038,2.433,6.327A1.6,1.6,0,0,1,20.063,10.138Z" transform="translate(0 -0.013)" fill="#a11a29"/>
          <path id="Path_819" data-name="Path 819" d="M14.813,22.385a2.176,2.176,0,0,0,2.186,0,2.176,2.176,0,1,0,0-3.763,2.176,2.176,0,1,0-2.186,3.763Zm2.793-3.244a1.451,1.451,0,1,1,0,2.724A2.167,2.167,0,0,0,17.606,19.141ZM17,19.554a1.424,1.424,0,0,1,0,1.9A1.424,1.424,0,0,1,17,19.554Zm-1.088-.5a1.435,1.435,0,0,1,.482.088,2.167,2.167,0,0,0,0,2.724,1.448,1.448,0,1,1-.482-2.813Z" transform="translate(-1.768 -2.371)" fill="#a11a29"/>
          <rect id="Rectangle_765" data-name="Rectangle 765" width="0.725" height="3.786" transform="matrix(-0.406, -0.914, 0.914, -0.406, 15.592, 8.147)" fill="#a11a29"/>
          <rect id="Rectangle_766" data-name="Rectangle 766" width="5.504" height="0.725" transform="translate(12.988 6.718) rotate(-24.776)" fill="#a11a29"/>
        </g>
      </g>
    </g>
  </g>
</svg>
