<svg xmlns="http://www.w3.org/2000/svg" xmlns:xlink="http://www.w3.org/1999/xlink" width="40" height="40" viewBox="0 0 40 40">
  <defs>
    <clipPath id="clip-path">
      <rect id="Rectangle_993" data-name="Rectangle 993" width="40" height="40" transform="translate(40 274)" fill="#fff" stroke="#707070" stroke-width="1"/>
    </clipPath>
  </defs>
  <g id="Mask_Group_91" data-name="Mask Group 91" transform="translate(-40 -274)" clip-path="url(#clip-path)">
    <g id="calculator" transform="translate(44.044 274)">
      <path id="Path_1178" data-name="Path 1178" d="M11.889,7.675a3.536,3.536,0,0,1,3.525-3.564H12.748A3.536,3.536,0,0,0,9.222,7.675V39.481a3.536,3.536,0,0,0,3.525,3.564h2.667a3.536,3.536,0,0,1-3.525-3.564Z" transform="translate(-8.689 -3.578)" fill="#d4e1f4"/>
      <g id="Group_949" data-name="Group 949" transform="translate(4.203 14.776)">
        <path id="Path_1179" data-name="Path 1179" d="M17.527,28.054h1.339v1.253a.533.533,0,1,0,1.067,0V28.054h1.305a.533.533,0,1,0,0-1.067H19.932v-1.3a.533.533,0,1,0-1.067,0v1.3H17.527a.533.533,0,1,0,0,1.067Z" transform="translate(-14.446 -22.563)" fill="#1ae5be"/>
        <path id="Path_1180" data-name="Path 1180" d="M18.745,31.787a4.936,4.936,0,1,0-4.936-4.936A4.936,4.936,0,0,0,18.745,31.787Zm0-8.805a3.869,3.869,0,1,1-3.869,3.869,3.869,3.869,0,0,1,3.869-3.869Z" transform="translate(-13.809 -21.914)" fill="#1ae5be"/>
        <path id="Path_1181" data-name="Path 1181" d="M34.8,29.218a.533.533,0,0,0,.754.02l.9-.854.9.854a.533.533,0,1,0,.734-.773l-.859-.816.859-.815a.533.533,0,1,0-.734-.773l-.9.854-.9-.854a.533.533,0,1,0-.734.773l.859.815-.859.816A.533.533,0,0,0,34.8,29.218Z" transform="translate(-17.976 -22.712)" fill="#1ae5be"/>
        <path id="Path_1182" data-name="Path 1182" d="M35.676,31.787a4.936,4.936,0,1,0-4.936-4.936,4.936,4.936,0,0,0,4.936,4.936Zm0-8.805a3.869,3.869,0,1,1-3.869,3.869,3.869,3.869,0,0,1,3.869-3.869Z" transform="translate(-17.195 -21.914)" fill="#1ae5be"/>
        <path id="Path_1183" data-name="Path 1183" d="M17.849,43.667a.533.533,0,0,0,.754,0l2.556-2.556a.533.533,0,1,0-.754-.754l-2.556,2.556a.533.533,0,0,0,0,.754Z" transform="translate(-14.586 -25.572)" fill="#1ae5be"/>
        <path id="Path_1184" data-name="Path 1184" d="M18.745,46.113a4.936,4.936,0,1,0-4.936-4.936A4.936,4.936,0,0,0,18.745,46.113Zm0-8.805a3.869,3.869,0,1,1-3.869,3.869A3.869,3.869,0,0,1,18.745,37.308Z" transform="translate(-13.809 -24.78)" fill="#1ae5be"/>
        <path id="Path_1185" data-name="Path 1185" d="M34.458,42.844h3.71a.533.533,0,1,0,0-1.067h-3.71a.533.533,0,1,0,0,1.067Z" transform="translate(-17.832 -25.887)" fill="#1ae5be"/>
        <path id="Path_1186" data-name="Path 1186" d="M35.676,46.113a4.936,4.936,0,1,0-4.936-4.936,4.936,4.936,0,0,0,4.936,4.936Zm0-8.805a3.869,3.869,0,1,1-3.869,3.869,3.869,3.869,0,0,1,3.869-3.869Z" transform="translate(-17.195 -24.78)" fill="#1ae5be"/>
        <path id="Path_1187" data-name="Path 1187" d="M17.937,41.639a1.242,1.242,0,1,0-1.219-1,1.234,1.234,0,0,0,1.219,1Zm-.124-1.366a.176.176,0,1,1,0,.248.176.176,0,0,1,0-.248Z" transform="translate(-14.386 -25.362)" fill="#1ae5be"/>
        <path id="Path_1188" data-name="Path 1188" d="M20.418,42.878a1.242,1.242,0,1,0,1.757,0,1.242,1.242,0,0,0-1.757,0Zm1,.754a.175.175,0,1,1-.248,0,.176.176,0,0,1,.248,0Z" transform="translate(-15.058 -26.035)" fill="#1ae5be"/>
      </g>
      <path id="Path_1189" data-name="Path 1189" d="M40.467,7.533a4.089,4.089,0,0,0-4.089-4.089H12.644A4.089,4.089,0,0,0,8.556,7.533V39.356a4.089,4.089,0,0,0,4.089,4.089H36.378a4.089,4.089,0,0,0,4.089-4.089Zm-1.156,7.733H18.067a.533.533,0,1,0,0,1.067H39.311V39.348a3.007,3.007,0,0,1-2.992,3.03h-23.7a3.007,3.007,0,0,1-2.992-3.03V16.333h4.889a.533.533,0,1,0,0-1.067H9.622V7.541a3.007,3.007,0,0,1,2.992-3.03h23.7a3.007,3.007,0,0,1,2.992,3.03Z" transform="translate(-8.556 -3.444)" fill="#0635c9"/>
      <path id="Path_1190" data-name="Path 1190" d="M37.222,8.644a.533.533,0,0,0-.533-.533H14.2a.533.533,0,0,0-.533.533v5.067a.533.533,0,0,0,.533.533H36.689a.533.533,0,0,0,.533-.533Zm-.978,4.533H14.733v-4H36.244Z" transform="translate(-9.578 -4.378)" fill="#0635c9"/>
      <path id="Path_1191" data-name="Path 1191" d="M12.311,21.233a.533.533,0,0,0-.533.533v.56a.533.533,0,0,0,1.067,0v-.56a.533.533,0,0,0-.533-.533Z" transform="translate(-9.2 -7.002)" fill="#0635c9"/>
      <path id="Path_1192" data-name="Path 1192" d="M12.311,24.043a.533.533,0,0,0-.533.533v7.2a.533.533,0,1,0,1.067,0v-7.2a.533.533,0,0,0-.533-.533Z" transform="translate(-9.2 -7.564)" fill="#0635c9"/>
    </g>
  </g>
</svg>
