<svg xmlns="http://www.w3.org/2000/svg" xmlns:xlink="http://www.w3.org/1999/xlink" width="40" height="40" viewBox="0 0 40 40">
  <defs>
    <clipPath id="clip-path">
      <rect id="Rectangle_993" data-name="Rectangle 993" width="40" height="40" transform="translate(40 274)" fill="#fff" stroke="#707070" stroke-width="1"/>
    </clipPath>
  </defs>
  <g id="Mask_Group_92" data-name="Mask Group 92" transform="translate(-40 -274)" clip-path="url(#clip-path)">
    <g id="contact-book_1_" data-name="contact-book (1)" transform="translate(41.488 274)">
      <path id="Path_1193" data-name="Path 1193" d="M10.085,41.53V8.3a2.792,2.792,0,0,1,2.232-2.735V5.513H10.085A2.791,2.791,0,0,0,7.294,8.3V41.53a2.791,2.791,0,0,0,2.791,2.791h2.233v-.056a2.792,2.792,0,0,1-2.233-2.735Z" transform="translate(-6.761 -4.917)" fill="#d4e1f4"/>
      <g id="Group_950" data-name="Group 950" transform="translate(0 0)">
        <path id="Path_1194" data-name="Path 1194" d="M42,8.4H39.465V8.154a3.361,3.361,0,0,0-3.32-3.387H9.952A3.364,3.364,0,0,0,6.628,8.154V41.38a3.364,3.364,0,0,0,3.324,3.387H36.145a3.361,3.361,0,0,0,3.32-3.387V41.14H42a1.631,1.631,0,0,0,1.649-1.646V10.041A1.631,1.631,0,0,0,42,8.4ZM7.744,41.38V8.154A2.247,2.247,0,0,1,9.952,5.884h1.7V43.651h-1.7A2.247,2.247,0,0,1,7.744,41.38Zm30.6-26.391V41.38a2.244,2.244,0,0,1-2.2,2.271H12.767V5.884H36.145a2.244,2.244,0,0,1,2.2,2.271v4.04a.558.558,0,0,0,1.116,0V9.512H42a.514.514,0,0,1,.533.529V16.3h-3.07V14.989a.558.558,0,0,0-1.116,0Zm1.116,10.336h3.07v6.791h-3.07Zm0-1.116V17.419h3.07v6.791ZM42,40.023H39.465V33.233h3.07v6.261a.514.514,0,0,1-.533.529Z" transform="translate(-6.628 -4.767)" fill="#0635c9"/>
        <path id="Path_1195" data-name="Path 1195" d="M41.6,10.214a.558.558,0,0,0-.558.558v.335a.558.558,0,1,0,1.116,0v-.335A.558.558,0,0,0,41.6,10.214Z" transform="translate(-13.512 -5.857)" fill="#0635c9"/>
        <path id="Path_1196" data-name="Path 1196" d="M41.6,12.967a.558.558,0,0,0-.558.558V24.178a.558.558,0,1,0,1.116,0V13.526A.558.558,0,0,0,41.6,12.967Z" transform="translate(-13.512 -6.407)" fill="#0635c9"/>
      </g>
      <path id="Path_1197" data-name="Path 1197" d="M38.265,34.7,34.41,30.849a1.154,1.154,0,0,0-1.7.078l-1.39,1.667a.633.633,0,0,1-.934.043L23.552,25.8a.633.633,0,0,1,.042-.934l1.667-1.39a1.155,1.155,0,0,0,.077-1.7l-3.854-3.853a1.153,1.153,0,0,0-1.755.145L16.68,22.342a2.931,2.931,0,0,0,.314,3.789L30.059,39.2a2.933,2.933,0,0,0,3.789.313l4.272-3.051a1.155,1.155,0,0,0,.145-1.755ZM20.639,18.719a.036.036,0,0,1,.028-.016h0a.033.033,0,0,1,.025.011l3.855,3.854a.035.035,0,0,1,.011.028.036.036,0,0,1-.014.028l-.853.711L19.989,19.63ZM33.2,38.6a1.82,1.82,0,0,1-2.351-.195L17.782,25.341a1.819,1.819,0,0,1-.194-2.351l1.743-2.44,3.5,3.5a1.746,1.746,0,0,0-.072,2.539L29.6,33.426a1.746,1.746,0,0,0,2.54-.073l3.5,3.5Zm4.271-3.051-.91.65L32.855,32.5l.711-.853a.035.035,0,0,1,.027-.014.036.036,0,0,1,.029.011l3.853,3.853a.036.036,0,0,1,.011.031.035.035,0,0,1-.016.028Z" transform="translate(-8.528 -7.331)" fill="#1ae5be"/>
      <path id="Path_1198" data-name="Path 1198" d="M24.821,16.744a.553.553,0,1,0,0,1.105A2.177,2.177,0,0,1,27,20.017a.545.545,0,0,0,.558.542h0a.54.54,0,0,0,.557-.538,3.289,3.289,0,0,0-3.3-3.276Z" transform="translate(-10.156 -7.163)" fill="#1ae5be"/>
      <path id="Path_1199" data-name="Path 1199" d="M29.461,18.973a.548.548,0,0,0,.558.541h0a.546.546,0,0,0,.554-.55,5.152,5.152,0,0,0-5.124-5.113.561.561,0,0,0-.558.561.554.554,0,0,0,.558.553,4.033,4.033,0,0,1,4.007,4.007Z" transform="translate(-10.281 -6.584)" fill="#1ae5be"/>
    </g>
  </g>
</svg>
