<svg xmlns="http://www.w3.org/2000/svg" xmlns:xlink="http://www.w3.org/1999/xlink" width="21" height="21" viewBox="0 0 21 21">
  <defs>
    <clipPath id="clip-path">
      <rect id="Rectangle_981" data-name="Rectangle 981" width="21" height="21" transform="translate(332 878)" fill="#a11a29" stroke="#707070" stroke-width="1"/>
    </clipPath>
  </defs>
  <g id="Mask_Group_84" data-name="Mask Group 84" transform="translate(-332 -878)" clip-path="url(#clip-path)">
    <g id="phone" transform="translate(332 878)">
      <g id="Group_903" data-name="Group 903">
        <g id="Group_902" data-name="Group 902">
          <path id="Path_1136" data-name="Path 1136" d="M20.459,15.5l-2.61-2.611a1.891,1.891,0,0,0-2.611,0l-.435.435,5.221,5.22.435-.435A1.844,1.844,0,0,0,20.459,15.5Z" fill="#a11a29"/>
        </g>
      </g>
      <g id="Group_905" data-name="Group 905">
        <g id="Group_904" data-name="Group 904">
          <path id="Path_1137" data-name="Path 1137" d="M13.909,14.166a1.384,1.384,0,0,1-1.835-.094L6.914,8.907A1.385,1.385,0,0,1,6.82,7.072L1.611,1.864a6.643,6.643,0,0,0,.32,9.02l8.166,8.17a6.6,6.6,0,0,0,9.021.32Z" fill="#a11a29"/>
        </g>
      </g>
      <g id="Group_907" data-name="Group 907">
        <g id="Group_906" data-name="Group 906">
          <path id="Path_1138" data-name="Path 1138" d="M8.1,3.133,5.491.523a1.891,1.891,0,0,0-2.611,0L2.445.958l5.221,5.22L8.1,5.743A1.844,1.844,0,0,0,8.1,3.133Z" fill="#a11a29"/>
        </g>
      </g>
    </g>
  </g>
</svg>
