<svg xmlns="http://www.w3.org/2000/svg" xmlns:xlink="http://www.w3.org/1999/xlink" width="24" height="24" viewBox="0 0 24 24">
  <defs>
    <clipPath id="clip-path">
      <rect id="Rectangle_985" data-name="Rectangle 985" width="24" height="24" transform="translate(0 0.314)" fill="#a11a29" stroke="#707070" stroke-width="1"/>
    </clipPath>
  </defs>
  <g id="Mask_Group_86" data-name="Mask Group 86" transform="translate(0 -0.314)" clip-path="url(#clip-path)">
    <g id="comment_1_" data-name="comment (1)" transform="translate(-0.391 0.062)">
      <g id="Group_916" data-name="Group 916" transform="translate(0 11.526)">
        <g id="Group_915" data-name="Group 915">
          <path id="Path_1146" data-name="Path 1146" d="M5.4,17.244a11.674,11.674,0,0,1-3.459-7.156A7.453,7.453,0,0,0,.325,14.745a7.539,7.539,0,0,0,.725,3.21l-.976,2.84a1.342,1.342,0,0,0,1.264,1.777,1.351,1.351,0,0,0,.439-.074l2.84-.976a7.539,7.539,0,0,0,3.21.725,7.456,7.456,0,0,0,4.733-1.675A11.685,11.685,0,0,1,5.4,17.244Z" transform="translate(0 -10.088)" fill="#a11a29"/>
        </g>
      </g>
      <g id="Group_918" data-name="Group 918" transform="translate(3.327 0)">
        <g id="Group_917" data-name="Group 917">
          <path id="Path_1147" data-name="Path 1147" d="M23.84,19.117l-1.417-4.123A10.314,10.314,0,0,0,13.334.166,10.295,10.295,0,0,0,5.952,17.811a10.24,10.24,0,0,0,7.215,2.959h.016a10.335,10.335,0,0,0,4.51-1.046l4.123,1.417a1.605,1.605,0,0,0,.522.088,1.595,1.595,0,0,0,1.5-2.112Zm-9.678-5.074H8.843a.726.726,0,0,1,0-1.452h5.32a.726.726,0,0,1,0,1.452Zm3.329-2.985H8.843a.726.726,0,1,1,0-1.452h8.649a.726.726,0,1,1,0,1.452Zm0-2.986H8.843a.726.726,0,1,1,0-1.452h8.649a.726.726,0,1,1,0,1.452Z" transform="translate(-2.865 -0.165)" fill="#a11a29"/>
        </g>
      </g>
    </g>
  </g>
</svg>
