<svg xmlns="http://www.w3.org/2000/svg" xmlns:xlink="http://www.w3.org/1999/xlink" width="24" height="24" viewBox="0 0 24 24">
  <defs>
    <clipPath id="clip-path">
      <rect id="Rectangle_1005" data-name="Rectangle 1005" width="24" height="24" transform="translate(99 770)" stroke="#707070" stroke-width="1"/>
    </clipPath>
  </defs>
  <g id="Mask_Group_101" data-name="Mask Group 101" transform="translate(-99 -770)" clip-path="url(#clip-path)">
    <g id="comment_1_" data-name="comment (1)" transform="translate(99 770)">
      <g id="Group_958" data-name="Group 958">
        <g id="Group_957" data-name="Group 957">
          <path id="Path_1245" data-name="Path 1245" d="M5.311,18.571a11.487,11.487,0,0,1-3.4-7.041A7.334,7.334,0,0,0,.32,16.111a7.418,7.418,0,0,0,.713,3.158l-.96,2.794a1.32,1.32,0,0,0,1.243,1.748,1.329,1.329,0,0,0,.432-.073l2.794-.96a7.418,7.418,0,0,0,3.158.713,7.336,7.336,0,0,0,4.658-1.649A11.5,11.5,0,0,1,5.311,18.571Z"/>
        </g>
      </g>
      <g id="Group_960" data-name="Group 960">
        <g id="Group_959" data-name="Group 959">
          <path id="Path_1246" data-name="Path 1246" d="M23.914,18.836,22.52,14.78A10.148,10.148,0,0,0,13.576.189,10.13,10.13,0,0,0,6.312,17.552a10.076,10.076,0,0,0,7.1,2.912h.016a10.169,10.169,0,0,0,4.438-1.029l4.057,1.394a1.579,1.579,0,0,0,.514.086,1.569,1.569,0,0,0,1.478-2.078Zm-9.523-4.993H9.156a.714.714,0,1,1,0-1.429h5.235a.714.714,0,0,1,0,1.429Zm3.276-2.938H9.156a.714.714,0,0,1,0-1.429h8.511a.714.714,0,0,1,0,1.429Zm0-2.938H9.156a.714.714,0,0,1,0-1.429h8.511a.714.714,0,0,1,0,1.429Z"/>
        </g>
      </g>
    </g>
  </g>
</svg>
